<?xml version="1.0" encoding="utf-8"?>
<!-- Generator: Adobe Illustrator 24.3.0, SVG Export Plug-In . SVG Version: 6.00 Build 0)  -->
<svg version="1.1" id="Layer_1" xmlns="http://www.w3.org/2000/svg" xmlns:xlink="http://www.w3.org/1999/xlink" x="0px" y="0px"
	 viewBox="0 0 1452 794" style="enable-background:new 0 0 1452 794;" xml:space="preserve">
<style type="text/css">
	.st0{fill:#E6E6E6;}
	.st1{fill:#29ABE2;}
	.st2{fill:none;}
	.st3{font-family:'MyriadPro-Regular';}
	.st4{font-size:21px;}
	.st5{fill:none;stroke:#29ABE2;stroke-miterlimit:10;}
</style>
<g>
	<rect x="604.5" y="100.5" class="st0" width="254" height="75"/>
	<path class="st1" d="M858,101v74H605v-74H858 M859,100H604v76h255V100L859,100z"/>
</g>
<g>
	<rect x="405.5" y="291.5" class="st0" width="254" height="75"/>
	<path class="st1" d="M659,292v74H406v-74H659 M660,291H405v76h255V291L660,291z"/>
</g>
<g>
	<path class="st1" d="M659,414v74H406v-74H659 M660,413H405v76h255V413L660,413z"/>
</g>
<g>
	<path class="st1" d="M659,532v74H406v-74H659 M660,531H405v76h255V531L660,531z"/>
</g>
<g>
	<path class="st1" d="M659,650v74H406v-74H659 M660,649H405v76h255V649L660,649z"/>
</g>
<g>
	<rect x="775.5" y="291.5" class="st0" width="254" height="75"/>
	<path class="st1" d="M1029,292v74H776v-74H1029 M1030,291H775v76h255V291L1030,291z"/>
</g>
<g>
	<rect x="1145.5" y="291.5" class="st0" width="254" height="75"/>
	<path class="st1" d="M1399,292v74h-253v-74H1399 M1400,291h-255v76h255V291L1400,291z"/>
</g>
<g>
	<rect x="62.5" y="291.5" class="st0" width="254" height="75"/>
	<path class="st1" d="M316,292v74H63v-74H316 M317,291H62v76h255V291L317,291z"/>
</g>
<rect x="648.53" y="130.23" class="st2" width="200.47" height="29.77"/>
<text transform="matrix(1 0 0 1 648.5303 145.1411)" class="st3 st4">Home/Splash Page</text>
<rect x="147.53" y="320.23" class="st2" width="200.47" height="29.77"/>
<text transform="matrix(1 0 0 1 147.5303 335.1411)" class="st3 st4">About Us</text>
<rect x="490.53" y="320.23" class="st2" width="200.47" height="29.77"/>
<text transform="matrix(1 0 0 1 490.5303 335.1411)" class="st3 st4">Calendar</text>
<rect x="487.53" y="445.23" class="st2" width="200.47" height="29.77"/>
<text transform="matrix(1 0 0 1 487.5303 460.1411)" class="st3 st4">Workshops</text>
<g>
	<path class="st1" d="M316,414v74H63v-74H316 M317,413H62v76h255V413L317,413z"/>
</g>
<rect x="94.53" y="445.23" class="st2" width="200.47" height="29.77"/>
<text transform="matrix(1 0 0 1 94.5303 460.1411)" class="st3 st4">Information on Board</text>
<g>
	<path class="st1" d="M1399,414v74h-253v-74H1399 M1400,413h-255v76h255V413L1400,413z"/>
</g>
<rect x="1227.53" y="445.23" class="st2" width="200.47" height="29.77"/>
<text transform="matrix(1 0 0 1 1227.5303 460.1411)" class="st3 st4">Articles</text>
<rect x="486.53" y="561.23" class="st2" width="200.47" height="29.77"/>
<text transform="matrix(1 0 0 1 486.5303 576.1411)" class="st3 st4">Alumni Day</text>
<rect x="441.53" y="677.23" class="st2" width="200.47" height="29.77"/>
<text transform="matrix(1 0 0 1 441.5303 692.1411)" class="st3 st4">Design Industry Day</text>
<g>
	<path class="st1" d="M1029,414v74H776v-74H1029 M1030,413H775v76h255V413L1030,413z"/>
</g>
<g>
	<path class="st1" d="M1029,532v74H776v-74H1029 M1030,531H775v76h255V531L1030,531z"/>
</g>
<g>
	<path class="st1" d="M1029,650v74H776v-74H1029 M1030,649H775v76h255V649L1030,649z"/>
</g>
<rect x="829.53" y="445.23" class="st2" width="200.47" height="29.77"/>
<text transform="matrix(1 0 0 1 829.5303 460.1411)" class="st3 st4">Job Opportunities</text>
<rect x="829.53" y="561.23" class="st2" width="200.47" height="29.77"/>
<text transform="matrix(1 0 0 1 829.5303 576.1411)" class="st3 st4">DCC Recruitment</text>
<rect x="848.53" y="677.23" class="st2" width="200.47" height="29.77"/>
<text transform="matrix(1 0 0 1 848.5303 692.1411)" class="st3 st4">Mentorship</text>
<rect x="860.53" y="320.23" class="st2" width="200.47" height="29.77"/>
<text transform="matrix(1 0 0 1 860.5303 335.1411)" class="st3 st4">Career</text>
<rect x="1243.53" y="320.23" class="st2" width="200.47" height="29.77"/>
<text transform="matrix(1 0 0 1 1243.5303 335.1411)" class="st3 st4">Blog</text>
<line class="st2" x1="731" y1="176" x2="731" y2="238"/>
<line class="st5" x1="1269.5" y1="238" x2="190" y2="238"/>
<line class="st5" x1="731.5" y1="176.5" x2="731.5" y2="238.5"/>
<line class="st5" x1="189.5" y1="238.5" x2="189.5" y2="291.5"/>
<line class="st5" x1="189.5" y1="367.5" x2="189.5" y2="413.5"/>
<line class="st5" x1="536.5" y1="238.5" x2="536.5" y2="291.5"/>
<line class="st5" x1="534.5" y1="367.5" x2="534.5" y2="413.5"/>
<line class="st5" x1="533.5" y1="489.5" x2="533.5" y2="531.5"/>
<line class="st5" x1="532.5" y1="607.5" x2="532.5" y2="649.5"/>
<line class="st5" x1="896.5" y1="239" x2="896.5" y2="292"/>
<line class="st5" x1="894.5" y1="368" x2="894.5" y2="414"/>
<line class="st5" x1="893.5" y1="490" x2="893.5" y2="532"/>
<line class="st5" x1="892.5" y1="608" x2="892.5" y2="650"/>
<line class="st5" x1="1269.5" y1="239" x2="1269.5" y2="292"/>
<line class="st5" x1="1267.5" y1="368" x2="1267.5" y2="414"/>
</svg>
